<svg width="17" height="15" viewBox="0 0 17 15" fill="none" xmlns="http://www.w3.org/2000/svg">
<path d="M15.9383 0H1.06167C0.476264 0 0 0.463818 0 1.03393V10.3457C0 10.919 0.476264 11.3796 1.06167 11.3796H3.18833V15L8.14611 11.3796H15.9383C16.527 11.3796 17 10.9158 17 10.3457V1.03393C17 0.463818 16.5237 0 15.9383 0ZM7.96751 8.27786H6.37335H5.31167H3.71751C3.42315 8.27786 3.18502 8.04595 3.18502 7.75929C3.18502 7.47262 3.42315 7.24071 3.71751 7.24071H5.31167H6.37335H7.96751C8.26187 7.24071 8.5 7.47262 8.5 7.75929C8.5 8.04595 8.26187 8.27786 7.96751 8.27786ZM13.2825 6.20679H3.71751C3.42315 6.20679 3.18502 5.97488 3.18502 5.68821C3.18502 5.40155 3.42315 5.16964 3.71751 5.16964H13.2792C13.5735 5.16964 13.8117 5.40155 13.8117 5.68821C13.8117 5.9781 13.5735 6.20679 13.2825 6.20679ZM13.2825 4.13893H3.71751C3.42315 4.13893 3.18502 3.90702 3.18502 3.62036C3.18502 3.33369 3.42315 3.10178 3.71751 3.10178H13.2792C13.5735 3.10178 13.8117 3.33369 13.8117 3.62036C13.8117 3.90702 13.5735 4.13893 13.2825 4.13893Z" fill="#C5C5C5"/>
</svg>
