<svg width="64" height="13" viewBox="0 0 64 13" fill="none" xmlns="http://www.w3.org/2000/svg">
<path d="M11.9921 4.7102L8.27705 4.16096L6.61631 0.73602C6.57095 0.642248 6.49633 0.566336 6.40415 0.520194C6.17296 0.404094 5.89202 0.500844 5.77643 0.73602L4.11569 4.16096L0.400604 4.7102C0.298179 4.72509 0.204534 4.77421 0.132836 4.84863C0.0461585 4.93926 -0.001605 5.06118 4.11833e-05 5.18762C0.00168737 5.31405 0.0526085 5.43464 0.141616 5.5229L2.82953 8.18873L2.1945 11.953C2.1796 12.0406 2.18913 12.1307 2.22199 12.213C2.25486 12.2953 2.30974 12.3667 2.38042 12.4189C2.45111 12.4711 2.53476 12.5021 2.6219 12.5085C2.70904 12.5148 2.79617 12.4961 2.87342 12.4547L6.19637 10.6774L9.51931 12.4547C9.61003 12.5038 9.71539 12.5201 9.81635 12.5023C10.0709 12.4576 10.2421 12.212 10.1982 11.953L9.56321 8.18873L12.2511 5.5229C12.3243 5.44997 12.3726 5.35471 12.3872 5.25051C12.4267 4.99003 12.2482 4.7489 11.9921 4.7102V4.7102Z" fill="#E7B55F"/>
<path d="M24.7389 4.7102L21.0238 4.16096L19.3631 0.73602C19.3177 0.642248 19.2431 0.566336 19.1509 0.520194C18.9197 0.404094 18.6388 0.500844 18.5232 0.73602L16.8624 4.16096L13.1474 4.7102C13.0449 4.72509 12.9513 4.77421 12.8796 4.84863C12.7929 4.93926 12.7451 5.06118 12.7468 5.18762C12.7484 5.31405 12.7994 5.43464 12.8884 5.5229L15.5763 8.18873L14.9412 11.953C14.9264 12.0406 14.9359 12.1307 14.9687 12.213C15.0016 12.2953 15.0565 12.3667 15.1272 12.4189C15.1979 12.4711 15.2815 12.5021 15.3686 12.5085C15.4558 12.5148 15.5429 12.4961 15.6202 12.4547L18.9431 10.6774L22.2661 12.4547C22.3568 12.5038 22.4621 12.5201 22.5631 12.5023C22.8177 12.4576 22.9889 12.212 22.945 11.953L22.31 8.18873L24.9979 5.5229C25.071 5.44997 25.1193 5.35471 25.134 5.25051C25.1735 4.99003 24.9949 4.7489 24.7389 4.7102V4.7102Z" fill="#E7B55F"/>
<path d="M37.4857 4.7102L33.7706 4.16096L32.1098 0.73602C32.0645 0.642248 31.9898 0.566336 31.8977 0.520194C31.6665 0.404094 31.3855 0.500844 31.2699 0.73602L29.6092 4.16096L25.8941 4.7102C25.7917 4.72509 25.698 4.77421 25.6264 4.84863C25.5397 4.93926 25.4919 5.06118 25.4936 5.18762C25.4952 5.31405 25.5461 5.43464 25.6351 5.5229L28.323 8.18873L27.688 11.953C27.6731 12.0406 27.6826 12.1307 27.7155 12.213C27.7484 12.2953 27.8033 12.3667 27.8739 12.4189C27.9446 12.4711 28.0283 12.5021 28.1154 12.5085C28.2026 12.5148 28.2897 12.4961 28.3669 12.4547L31.6899 10.6774L35.0128 12.4547C35.1035 12.5038 35.2089 12.5201 35.3099 12.5023C35.5645 12.4576 35.7357 12.212 35.6918 11.953L35.0567 8.18873L37.7446 5.5229C37.8178 5.44997 37.8661 5.35471 37.8807 5.25051C37.9202 4.99003 37.7417 4.7489 37.4857 4.7102V4.7102Z" fill="#E7B55F"/>
<path d="M50.2324 4.7102L46.5173 4.16096L44.8566 0.73602C44.8112 0.642248 44.7366 0.566336 44.6444 0.520194C44.4132 0.404094 44.1323 0.500844 44.0167 0.73602L42.356 4.16096L38.6409 4.7102C38.5385 4.72509 38.4448 4.77421 38.3731 4.84863C38.2864 4.93926 38.2387 5.06118 38.2403 5.18762C38.242 5.31405 38.2929 5.43464 38.3819 5.5229L41.0698 8.18873L40.4348 11.953C40.4199 12.0406 40.4294 12.1307 40.4623 12.213C40.4951 12.2953 40.55 12.3667 40.6207 12.4189C40.6914 12.4711 40.775 12.5021 40.8622 12.5085C40.9493 12.5148 41.0365 12.4961 41.1137 12.4547L44.4366 10.6774L47.7596 12.4547C47.8503 12.5038 47.9557 12.5201 48.0566 12.5023C48.3112 12.4576 48.4824 12.212 48.4385 11.953L47.8035 8.18873L50.4914 5.5229C50.5646 5.44997 50.6129 5.35471 50.6275 5.25051C50.667 4.99003 50.4885 4.7489 50.2324 4.7102V4.7102Z" fill="#E7B55F"/>
<path d="M63.3333 4.7102L59.6182 4.16096L57.9574 0.73602C57.9121 0.642248 57.8374 0.566336 57.7453 0.520194C57.5141 0.404094 57.2331 0.500844 57.1175 0.73602L55.4568 4.16096L51.7417 4.7102C51.6393 4.72509 51.5456 4.77421 51.474 4.84863C51.3873 4.93926 51.3395 5.06118 51.3412 5.18762C51.3428 5.31405 51.3937 5.43464 51.4827 5.5229L54.1706 8.18873L53.5356 11.953C53.5207 12.0406 53.5302 12.1307 53.5631 12.213C53.596 12.2953 53.6509 12.3667 53.7215 12.4189C53.7922 12.4711 53.8759 12.5021 53.963 12.5085C54.0502 12.5148 54.1373 12.4961 54.2145 12.4547L57.5375 10.6774L60.8604 12.4547C60.9511 12.5038 61.0565 12.5201 61.1575 12.5023C61.4121 12.4576 61.5833 12.212 61.5394 11.953L60.9043 8.18873L63.5922 5.5229C63.6654 5.44997 63.7137 5.35471 63.7283 5.25051C63.7678 4.99003 63.5893 4.7489 63.3333 4.7102V4.7102Z" fill="#DDDDDD"/>
</svg>
