<svg width="64" height="14" viewBox="0 0 64 14" fill="none" xmlns="http://www.w3.org/2000/svg">
<path d="M11.9921 5.21983L8.27705 4.67059L6.61631 1.24565C6.57095 1.15188 6.49633 1.07596 6.40415 1.02982C6.17296 0.913723 5.89202 1.01047 5.77643 1.24565L4.11569 4.67059L0.400604 5.21983C0.298179 5.23472 0.204534 5.28384 0.132836 5.35826C0.0461585 5.44889 -0.001605 5.57081 4.11833e-05 5.69724C0.00168737 5.82368 0.0526085 5.94427 0.141616 6.03253L2.82953 8.69836L2.1945 12.4627C2.1796 12.5502 2.18913 12.6403 2.22199 12.7226C2.25486 12.805 2.30974 12.8763 2.38042 12.9285C2.45111 12.9807 2.53476 13.0118 2.6219 13.0181C2.70904 13.0244 2.79617 13.0058 2.87342 12.9643L6.19637 11.1871L9.51931 12.9643C9.61003 13.0134 9.71539 13.0298 9.81635 13.0119C10.0709 12.9673 10.2421 12.7217 10.1982 12.4627L9.56321 8.69836L12.2511 6.03253C12.3243 5.9596 12.3726 5.86434 12.3872 5.76014C12.4267 5.49966 12.2482 5.25853 11.9921 5.21983V5.21983Z" fill="#E7B55F"/>
<path d="M24.7389 5.21983L21.0238 4.67059L19.3631 1.24565C19.3177 1.15188 19.2431 1.07596 19.1509 1.02982C18.9197 0.913723 18.6388 1.01047 18.5232 1.24565L16.8624 4.67059L13.1474 5.21983C13.0449 5.23472 12.9513 5.28384 12.8796 5.35826C12.7929 5.44889 12.7451 5.57081 12.7468 5.69724C12.7484 5.82368 12.7994 5.94427 12.8884 6.03253L15.5763 8.69836L14.9412 12.4627C14.9264 12.5502 14.9359 12.6403 14.9687 12.7226C15.0016 12.805 15.0565 12.8763 15.1272 12.9285C15.1979 12.9807 15.2815 13.0118 15.3686 13.0181C15.4558 13.0244 15.5429 13.0058 15.6202 12.9643L18.9431 11.1871L22.2661 12.9643C22.3568 13.0134 22.4621 13.0298 22.5631 13.0119C22.8177 12.9673 22.9889 12.7217 22.945 12.4627L22.31 8.69836L24.9979 6.03253C25.071 5.9596 25.1193 5.86434 25.134 5.76014C25.1735 5.49966 24.9949 5.25853 24.7389 5.21983V5.21983Z" fill="#E7B55F"/>
<path d="M37.4857 5.21983L33.7706 4.67059L32.1098 1.24565C32.0645 1.15188 31.9898 1.07596 31.8977 1.02982C31.6665 0.913723 31.3855 1.01047 31.2699 1.24565L29.6092 4.67059L25.8941 5.21983C25.7917 5.23472 25.698 5.28384 25.6264 5.35826C25.5397 5.44889 25.4919 5.57081 25.4936 5.69724C25.4952 5.82368 25.5461 5.94427 25.6351 6.03253L28.323 8.69836L27.688 12.4627C27.6731 12.5502 27.6826 12.6403 27.7155 12.7226C27.7484 12.805 27.8033 12.8763 27.8739 12.9285C27.9446 12.9807 28.0283 13.0118 28.1154 13.0181C28.2026 13.0244 28.2897 13.0058 28.3669 12.9643L31.6899 11.1871L35.0128 12.9643C35.1035 13.0134 35.2089 13.0298 35.3099 13.0119C35.5645 12.9673 35.7357 12.7217 35.6918 12.4627L35.0567 8.69836L37.7446 6.03253C37.8178 5.9596 37.8661 5.86434 37.8807 5.76014C37.9202 5.49966 37.7417 5.25853 37.4857 5.21983V5.21983Z" fill="#E7B55F"/>
<path d="M50.2324 5.21983L46.5173 4.67059L44.8566 1.24565C44.8112 1.15188 44.7366 1.07596 44.6444 1.02982C44.4132 0.913723 44.1323 1.01047 44.0167 1.24565L42.356 4.67059L38.6409 5.21983C38.5385 5.23472 38.4448 5.28384 38.3731 5.35826C38.2864 5.44889 38.2387 5.57081 38.2403 5.69724C38.242 5.82368 38.2929 5.94427 38.3819 6.03253L41.0698 8.69836L40.4348 12.4627C40.4199 12.5502 40.4294 12.6403 40.4623 12.7226C40.4951 12.805 40.55 12.8763 40.6207 12.9285C40.6914 12.9807 40.775 13.0118 40.8622 13.0181C40.9493 13.0244 41.0365 13.0058 41.1137 12.9643L44.4366 11.1871L47.7596 12.9643C47.8503 13.0134 47.9557 13.0298 48.0566 13.0119C48.3112 12.9673 48.4824 12.7217 48.4385 12.4627L47.8035 8.69836L50.4914 6.03253C50.5646 5.9596 50.6129 5.86434 50.6275 5.76014C50.667 5.49966 50.4885 5.25853 50.2324 5.21983V5.21983Z" fill="#DDDDDD"/>
<path d="M63.3333 5.21983L59.6182 4.67059L57.9574 1.24565C57.9121 1.15188 57.8374 1.07596 57.7453 1.02982C57.5141 0.913723 57.2331 1.01047 57.1175 1.24565L55.4568 4.67059L51.7417 5.21983C51.6393 5.23472 51.5456 5.28384 51.474 5.35826C51.3873 5.44889 51.3395 5.57081 51.3412 5.69724C51.3428 5.82368 51.3937 5.94427 51.4827 6.03253L54.1706 8.69836L53.5356 12.4627C53.5207 12.5502 53.5302 12.6403 53.5631 12.7226C53.596 12.805 53.6509 12.8763 53.7215 12.9285C53.7922 12.9807 53.8759 13.0118 53.963 13.0181C54.0502 13.0244 54.1373 13.0058 54.2145 12.9643L57.5375 11.1871L60.8604 12.9643C60.9511 13.0134 61.0565 13.0298 61.1575 13.0119C61.4121 12.9673 61.5833 12.7217 61.5394 12.4627L60.9043 8.69836L63.5922 6.03253C63.6654 5.9596 63.7137 5.86434 63.7283 5.76014C63.7678 5.49966 63.5893 5.25853 63.3333 5.21983V5.21983Z" fill="#DDDDDD"/>
</svg>
