<svg width="64" height="13" viewBox="0 0 64 13" fill="none" xmlns="http://www.w3.org/2000/svg">
<path d="M11.9921 5.20053L8.27705 4.65129L6.61631 1.22635C6.57095 1.13257 6.49633 1.05666 6.40415 1.01052C6.17296 0.89442 5.89202 0.99117 5.77643 1.22635L4.11569 4.65129L0.400604 5.20053C0.298179 5.21542 0.204534 5.26453 0.132836 5.33896C0.0461585 5.42958 -0.001605 5.55151 4.11833e-05 5.67794C0.00168737 5.80437 0.0526085 5.92497 0.141616 6.01323L2.82953 8.67906L2.1945 12.4434C2.1796 12.5309 2.18913 12.621 2.22199 12.7033C2.25486 12.7857 2.30974 12.857 2.38042 12.9092C2.45111 12.9614 2.53476 12.9925 2.6219 12.9988C2.70904 13.0051 2.79617 12.9865 2.87342 12.945L6.19637 11.1678L9.51931 12.945C9.61003 12.9941 9.71539 13.0105 9.81635 12.9926C10.0709 12.948 10.2421 12.7024 10.1982 12.4434L9.56321 8.67906L12.2511 6.01323C12.3243 5.94029 12.3726 5.84503 12.3872 5.74084C12.4267 5.48036 12.2482 5.23923 11.9921 5.20053V5.20053Z" fill="#E7B55F"/>
<path d="M24.7389 5.20053L21.0238 4.65129L19.3631 1.22635C19.3177 1.13257 19.2431 1.05666 19.1509 1.01052C18.9197 0.89442 18.6388 0.99117 18.5232 1.22635L16.8624 4.65129L13.1474 5.20053C13.0449 5.21542 12.9513 5.26453 12.8796 5.33896C12.7929 5.42958 12.7451 5.55151 12.7468 5.67794C12.7484 5.80437 12.7994 5.92497 12.8884 6.01323L15.5763 8.67906L14.9412 12.4434C14.9264 12.5309 14.9359 12.621 14.9687 12.7033C15.0016 12.7857 15.0565 12.857 15.1272 12.9092C15.1979 12.9614 15.2815 12.9925 15.3686 12.9988C15.4558 13.0051 15.5429 12.9865 15.6202 12.945L18.9431 11.1678L22.2661 12.945C22.3568 12.9941 22.4621 13.0105 22.5631 12.9926C22.8177 12.948 22.9889 12.7024 22.945 12.4434L22.31 8.67906L24.9979 6.01323C25.071 5.94029 25.1193 5.84503 25.134 5.74084C25.1735 5.48036 24.9949 5.23923 24.7389 5.20053V5.20053Z" fill="#E7B55F"/>
<path d="M37.4857 5.20053L33.7706 4.65129L32.1098 1.22635C32.0645 1.13257 31.9898 1.05666 31.8977 1.01052C31.6665 0.89442 31.3855 0.99117 31.2699 1.22635L29.6092 4.65129L25.8941 5.20053C25.7917 5.21542 25.698 5.26453 25.6264 5.33896C25.5397 5.42958 25.4919 5.55151 25.4936 5.67794C25.4952 5.80437 25.5461 5.92497 25.6351 6.01323L28.323 8.67906L27.688 12.4434C27.6731 12.5309 27.6826 12.621 27.7155 12.7033C27.7484 12.7857 27.8033 12.857 27.8739 12.9092C27.9446 12.9614 28.0283 12.9925 28.1154 12.9988C28.2026 13.0051 28.2897 12.9865 28.3669 12.945L31.6899 11.1678L35.0128 12.945C35.1035 12.9941 35.2089 13.0105 35.3099 12.9926C35.5645 12.948 35.7357 12.7024 35.6918 12.4434L35.0567 8.67906L37.7446 6.01323C37.8178 5.94029 37.8661 5.84503 37.8807 5.74084C37.9202 5.48036 37.7417 5.23923 37.4857 5.20053V5.20053Z" fill="#E7B55F"/>
<path d="M50.2324 5.20053L46.5173 4.65129L44.8566 1.22635C44.8112 1.13257 44.7366 1.05666 44.6444 1.01052C44.4132 0.89442 44.1323 0.99117 44.0167 1.22635L42.356 4.65129L38.6409 5.20053C38.5385 5.21542 38.4448 5.26453 38.3731 5.33896C38.2864 5.42958 38.2387 5.55151 38.2403 5.67794C38.242 5.80437 38.2929 5.92497 38.3819 6.01323L41.0698 8.67906L40.4348 12.4434C40.4199 12.5309 40.4294 12.621 40.4623 12.7033C40.4951 12.7857 40.55 12.857 40.6207 12.9092C40.6914 12.9614 40.775 12.9925 40.8622 12.9988C40.9493 13.0051 41.0365 12.9865 41.1137 12.945L44.4366 11.1678L47.7596 12.945C47.8503 12.9941 47.9557 13.0105 48.0566 12.9926C48.3112 12.948 48.4824 12.7024 48.4385 12.4434L47.8035 8.67906L50.4914 6.01323C50.5646 5.94029 50.6129 5.84503 50.6275 5.74084C50.667 5.48036 50.4885 5.23923 50.2324 5.20053V5.20053Z" fill="#E7B55F"/>
<path d="M63.3333 5.20053L59.6182 4.65129L57.9574 1.22635C57.9121 1.13257 57.8374 1.05666 57.7453 1.01052C57.5141 0.89442 57.2331 0.99117 57.1175 1.22635L55.4568 4.65129L51.7417 5.20053C51.6393 5.21542 51.5456 5.26453 51.474 5.33896C51.3873 5.42958 51.3395 5.55151 51.3412 5.67794C51.3428 5.80437 51.3937 5.92497 51.4827 6.01323L54.1706 8.67906L53.5356 12.4434C53.5207 12.5309 53.5302 12.621 53.5631 12.7033C53.596 12.7857 53.6509 12.857 53.7215 12.9092C53.7922 12.9614 53.8759 12.9925 53.963 12.9988C54.0502 13.0051 54.1373 12.9865 54.2145 12.945L57.5375 11.1678L60.8604 12.945C60.9511 12.9941 61.0565 13.0105 61.1575 12.9926C61.4121 12.948 61.5833 12.7024 61.5394 12.4434L60.9043 8.67906L63.5922 6.01323C63.6654 5.94029 63.7137 5.84503 63.7283 5.74084C63.7678 5.48036 63.5893 5.23923 63.3333 5.20053V5.20053Z" fill="#E7B55F"/>
</svg>
