<svg width="64" height="13" viewBox="0 0 64 13" fill="none" xmlns="http://www.w3.org/2000/svg">
<path d="M11.9921 4.72949L8.27705 4.18025L6.61631 0.755308C6.57095 0.661535 6.49633 0.585623 6.40415 0.539481C6.17296 0.423381 5.89202 0.520131 5.77643 0.755308L4.11569 4.18025L0.400604 4.72949C0.298179 4.74438 0.204534 4.7935 0.132836 4.86792C0.0461585 4.95855 -0.001605 5.08047 4.11833e-05 5.2069C0.00168737 5.33333 0.0526085 5.45393 0.141616 5.54219L2.82953 8.20802L2.1945 11.9723C2.1796 12.0599 2.18913 12.15 2.22199 12.2323C2.25486 12.3146 2.30974 12.386 2.38042 12.4382C2.45111 12.4904 2.53476 12.5214 2.6219 12.5278C2.70904 12.5341 2.79617 12.5154 2.87342 12.4739L6.19637 10.6967L9.51931 12.4739C9.61003 12.5231 9.71539 12.5394 9.81635 12.5216C10.0709 12.4769 10.2421 12.2313 10.1982 11.9723L9.56321 8.20802L12.2511 5.54219C12.3243 5.46926 12.3726 5.37399 12.3872 5.2698C12.4267 5.00932 12.2482 4.76819 11.9921 4.72949V4.72949Z" fill="#E7B55F"/>
<path d="M24.7389 4.72949L21.0238 4.18025L19.3631 0.755308C19.3177 0.661535 19.2431 0.585623 19.1509 0.539481C18.9197 0.423381 18.6388 0.520131 18.5232 0.755308L16.8624 4.18025L13.1474 4.72949C13.0449 4.74438 12.9513 4.7935 12.8796 4.86792C12.7929 4.95855 12.7451 5.08047 12.7468 5.2069C12.7484 5.33333 12.7994 5.45393 12.8884 5.54219L15.5763 8.20802L14.9412 11.9723C14.9264 12.0599 14.9359 12.15 14.9687 12.2323C15.0016 12.3146 15.0565 12.386 15.1272 12.4382C15.1979 12.4904 15.2815 12.5214 15.3686 12.5278C15.4558 12.5341 15.5429 12.5154 15.6202 12.4739L18.9431 10.6967L22.2661 12.4739C22.3568 12.5231 22.4621 12.5394 22.5631 12.5216C22.8177 12.4769 22.9889 12.2313 22.945 11.9723L22.31 8.20802L24.9979 5.54219C25.071 5.46926 25.1193 5.37399 25.134 5.2698C25.1735 5.00932 24.9949 4.76819 24.7389 4.72949V4.72949Z" fill="#E7B55F"/>
<path d="M37.4857 4.72949L33.7706 4.18025L32.1098 0.755308C32.0645 0.661535 31.9898 0.585623 31.8977 0.539481C31.6665 0.423381 31.3855 0.520131 31.2699 0.755308L29.6092 4.18025L25.8941 4.72949C25.7917 4.74438 25.698 4.7935 25.6264 4.86792C25.5397 4.95855 25.4919 5.08047 25.4936 5.2069C25.4952 5.33333 25.5461 5.45393 25.6351 5.54219L28.323 8.20802L27.688 11.9723C27.6731 12.0599 27.6826 12.15 27.7155 12.2323C27.7484 12.3146 27.8033 12.386 27.8739 12.4382C27.9446 12.4904 28.0283 12.5214 28.1154 12.5278C28.2026 12.5341 28.2897 12.5154 28.3669 12.4739L31.6899 10.6967L35.0128 12.4739C35.1035 12.5231 35.2089 12.5394 35.3099 12.5216C35.5645 12.4769 35.7357 12.2313 35.6918 11.9723L35.0567 8.20802L37.7446 5.54219C37.8178 5.46926 37.8661 5.37399 37.8807 5.2698C37.9202 5.00932 37.7417 4.76819 37.4857 4.72949V4.72949Z" fill="#DDDDDD"/>
<path d="M50.2324 4.72949L46.5173 4.18025L44.8566 0.755308C44.8112 0.661535 44.7366 0.585623 44.6444 0.539481C44.4132 0.423381 44.1323 0.520131 44.0167 0.755308L42.356 4.18025L38.6409 4.72949C38.5385 4.74438 38.4448 4.7935 38.3731 4.86792C38.2864 4.95855 38.2387 5.08047 38.2403 5.2069C38.242 5.33333 38.2929 5.45393 38.3819 5.54219L41.0698 8.20802L40.4348 11.9723C40.4199 12.0599 40.4294 12.15 40.4623 12.2323C40.4951 12.3146 40.55 12.386 40.6207 12.4382C40.6914 12.4904 40.775 12.5214 40.8622 12.5278C40.9493 12.5341 41.0365 12.5154 41.1137 12.4739L44.4366 10.6967L47.7596 12.4739C47.8503 12.5231 47.9557 12.5394 48.0566 12.5216C48.3112 12.4769 48.4824 12.2313 48.4385 11.9723L47.8035 8.20802L50.4914 5.54219C50.5646 5.46926 50.6129 5.37399 50.6275 5.2698C50.667 5.00932 50.4885 4.76819 50.2324 4.72949V4.72949Z" fill="#DDDDDD"/>
<path d="M63.3333 4.72949L59.6182 4.18025L57.9574 0.755308C57.9121 0.661535 57.8374 0.585623 57.7453 0.539481C57.5141 0.423381 57.2331 0.520131 57.1175 0.755308L55.4568 4.18025L51.7417 4.72949C51.6393 4.74438 51.5456 4.7935 51.474 4.86792C51.3873 4.95855 51.3395 5.08047 51.3412 5.2069C51.3428 5.33333 51.3937 5.45393 51.4827 5.54219L54.1706 8.20802L53.5356 11.9723C53.5207 12.0599 53.5302 12.15 53.5631 12.2323C53.596 12.3146 53.6509 12.386 53.7215 12.4382C53.7922 12.4904 53.8759 12.5214 53.963 12.5278C54.0502 12.5341 54.1373 12.5154 54.2145 12.4739L57.5375 10.6967L60.8604 12.4739C60.9511 12.5231 61.0565 12.5394 61.1575 12.5216C61.4121 12.4769 61.5833 12.2313 61.5394 11.9723L60.9043 8.20802L63.5922 5.54219C63.6654 5.46926 63.7137 5.37399 63.7283 5.2698C63.7678 5.00932 63.5893 4.76819 63.3333 4.72949V4.72949Z" fill="#DDDDDD"/>
</svg>
