<svg width="64" height="13" viewBox="0 0 64 13" fill="none" xmlns="http://www.w3.org/2000/svg">
<path d="M11.9921 4.23914L8.27705 3.68989L6.61631 0.264951C6.57095 0.171178 6.49633 0.0952669 6.40415 0.0491246C6.17296 -0.0669751 5.89202 0.0297747 5.77643 0.264951L4.11569 3.68989L0.400604 4.23914C0.298179 4.25402 0.204534 4.30314 0.132836 4.37756C0.0461585 4.46819 -0.001605 4.59011 4.11833e-05 4.71655C0.00168737 4.84298 0.0526085 4.96357 0.141616 5.05183L2.82953 7.71766L2.1945 11.482C2.1796 11.5695 2.18913 11.6596 2.22199 11.7419C2.25486 11.8243 2.30974 11.8956 2.38042 11.9478C2.45111 12 2.53476 12.0311 2.6219 12.0374C2.70904 12.0437 2.79617 12.0251 2.87342 11.9836L6.19637 10.2064L9.51931 11.9836C9.61003 12.0327 9.71539 12.0491 9.81635 12.0312C10.0709 11.9866 10.2421 11.741 10.1982 11.482L9.56321 7.71766L12.2511 5.05183C12.3243 4.9789 12.3726 4.88364 12.3872 4.77945C12.4267 4.51897 12.2482 4.27784 11.9921 4.23914V4.23914Z" fill="#E7B55F"/>
<path d="M24.7389 4.23914L21.0238 3.68989L19.3631 0.264951C19.3177 0.171178 19.2431 0.0952669 19.1509 0.0491246C18.9197 -0.0669751 18.6388 0.0297747 18.5232 0.264951L16.8624 3.68989L13.1474 4.23914C13.0449 4.25402 12.9513 4.30314 12.8796 4.37756C12.7929 4.46819 12.7451 4.59011 12.7468 4.71655C12.7484 4.84298 12.7994 4.96357 12.8884 5.05183L15.5763 7.71766L14.9412 11.482C14.9264 11.5695 14.9359 11.6596 14.9687 11.7419C15.0016 11.8243 15.0565 11.8956 15.1272 11.9478C15.1979 12 15.2815 12.0311 15.3686 12.0374C15.4558 12.0437 15.5429 12.0251 15.6202 11.9836L18.9431 10.2064L22.2661 11.9836C22.3568 12.0327 22.4621 12.0491 22.5631 12.0312C22.8177 11.9866 22.9889 11.741 22.945 11.482L22.31 7.71766L24.9979 5.05183C25.071 4.9789 25.1193 4.88364 25.134 4.77945C25.1735 4.51897 24.9949 4.27784 24.7389 4.23914V4.23914Z" fill="#DDDDDD"/>
<path d="M37.4857 4.23914L33.7706 3.68989L32.1098 0.264951C32.0645 0.171178 31.9898 0.0952669 31.8977 0.0491246C31.6665 -0.0669751 31.3855 0.0297747 31.2699 0.264951L29.6092 3.68989L25.8941 4.23914C25.7917 4.25402 25.698 4.30314 25.6264 4.37756C25.5397 4.46819 25.4919 4.59011 25.4936 4.71655C25.4952 4.84298 25.5461 4.96357 25.6351 5.05183L28.323 7.71766L27.688 11.482C27.6731 11.5695 27.6826 11.6596 27.7155 11.7419C27.7484 11.8243 27.8033 11.8956 27.8739 11.9478C27.9446 12 28.0283 12.0311 28.1154 12.0374C28.2026 12.0437 28.2897 12.0251 28.3669 11.9836L31.6899 10.2064L35.0128 11.9836C35.1035 12.0327 35.2089 12.0491 35.3099 12.0312C35.5645 11.9866 35.7357 11.741 35.6918 11.482L35.0567 7.71766L37.7446 5.05183C37.8178 4.9789 37.8661 4.88364 37.8807 4.77945C37.9202 4.51897 37.7417 4.27784 37.4857 4.23914V4.23914Z" fill="#DDDDDD"/>
<path d="M50.2324 4.23914L46.5173 3.68989L44.8566 0.264951C44.8112 0.171178 44.7366 0.0952669 44.6444 0.0491246C44.4132 -0.0669751 44.1323 0.0297747 44.0167 0.264951L42.356 3.68989L38.6409 4.23914C38.5385 4.25402 38.4448 4.30314 38.3731 4.37756C38.2864 4.46819 38.2387 4.59011 38.2403 4.71655C38.242 4.84298 38.2929 4.96357 38.3819 5.05183L41.0698 7.71766L40.4348 11.482C40.4199 11.5695 40.4294 11.6596 40.4623 11.7419C40.4951 11.8243 40.55 11.8956 40.6207 11.9478C40.6914 12 40.775 12.0311 40.8622 12.0374C40.9493 12.0437 41.0365 12.0251 41.1137 11.9836L44.4366 10.2064L47.7596 11.9836C47.8503 12.0327 47.9557 12.0491 48.0566 12.0312C48.3112 11.9866 48.4824 11.741 48.4385 11.482L47.8035 7.71766L50.4914 5.05183C50.5646 4.9789 50.6129 4.88364 50.6275 4.77945C50.667 4.51897 50.4885 4.27784 50.2324 4.23914V4.23914Z" fill="#DDDDDD"/>
<path d="M63.3333 4.23914L59.6182 3.68989L57.9574 0.264951C57.9121 0.171178 57.8374 0.0952669 57.7453 0.0491246C57.5141 -0.0669751 57.2331 0.0297747 57.1175 0.264951L55.4568 3.68989L51.7417 4.23914C51.6393 4.25402 51.5456 4.30314 51.474 4.37756C51.3873 4.46819 51.3395 4.59011 51.3412 4.71655C51.3428 4.84298 51.3937 4.96357 51.4827 5.05183L54.1706 7.71766L53.5356 11.482C53.5207 11.5695 53.5302 11.6596 53.5631 11.7419C53.596 11.8243 53.6509 11.8956 53.7215 11.9478C53.7922 12 53.8759 12.0311 53.963 12.0374C54.0502 12.0437 54.1373 12.0251 54.2145 11.9836L57.5375 10.2064L60.8604 11.9836C60.9511 12.0327 61.0565 12.0491 61.1575 12.0312C61.4121 11.9866 61.5833 11.741 61.5394 11.482L60.9043 7.71766L63.5922 5.05183C63.6654 4.9789 63.7137 4.88364 63.7283 4.77945C63.7678 4.51897 63.5893 4.27784 63.3333 4.23914V4.23914Z" fill="#DDDDDD"/>
</svg>
