<svg width="11" height="11" viewBox="0 0 11 11" fill="none" xmlns="http://www.w3.org/2000/svg">
<path d="M10.522 0.397428L10.5086 0.383956C10.2393 0.134721 9.88922 0 9.52233 0C9.11168 0 8.71786 0.175138 8.44185 0.478261L3.90452 5.45622C3.85739 5.5101 3.82037 5.57073 3.79681 5.63809L3.18083 7.48377C3.11015 7.69596 3.14381 7.93172 3.27508 8.11359C3.40635 8.29547 3.61841 8.40661 3.84393 8.40661C3.94154 8.40661 4.03579 8.3864 4.12667 8.34599L5.90727 7.56797C5.97122 7.54103 6.02845 7.49724 6.07894 7.44672L10.6163 2.4654C11.1616 1.86926 11.1178 0.939682 10.522 0.397428ZM4.36229 7.14023L4.72245 6.05909L4.75274 6.02541L5.43603 6.65187L5.40574 6.68555L4.36229 7.14023ZM9.87239 1.78169L6.11933 5.90416L5.43603 5.27771L9.18909 1.1586C9.27661 1.0643 9.39442 1.01041 9.52569 1.01041C9.64013 1.01041 9.74785 1.05419 9.832 1.12829L9.84546 1.14176C10.0272 1.31017 10.0407 1.59982 9.87239 1.78169Z" fill="black"/>
<path d="M10.2023 3.91028C9.92289 3.91028 9.69737 4.13593 9.69737 4.41548V8.70299C9.69737 9.41027 9.12179 9.98621 8.41493 9.98621H2.29223C1.58537 9.98621 1.00979 9.41027 1.00979 8.70299V2.63042C1.00979 1.92314 1.58537 1.3472 2.29223 1.3472H6.72185C7.00122 1.3472 7.22674 1.12154 7.22674 0.841997C7.22674 0.56245 7.00122 0.336792 6.72185 0.336792H2.29223C1.02999 0.336792 0 1.36741 0 2.63042V8.70299C0 9.96937 1.02999 10.9966 2.29223 10.9966H8.41157C9.67717 10.9966 10.7038 9.966 10.7038 8.70299V4.41548C10.7072 4.13593 10.4816 3.91028 10.2023 3.91028Z" fill="black"/>
</svg>
